<svg version="1.1" id="Layer_1" xmlns="http://www.w3.org/2000/svg" xmlns:xlink="http://www.w3.org/1999/xlink" x="0px" y="0px"
	 width="100%" viewBox="0 0 514 400" enable-background="new 0 0 514 400" xml:space="preserve">
<path fill="none" opacity="1.000000" stroke="#000000" stroke-linecap="round" stroke-linejoin="round" stroke-width="6.000000"
	d="
M175.000000,360.500000 
	C174.833328,357.500000 174.523468,354.500092 174.521454,351.500000 
	C174.490662,305.500000 174.501266,259.500000 174.498703,213.500000 
	C174.498291,206.294830 169.652344,201.053772 162.500000,200.500000 
	C156.111511,200.005371 150.789703,204.660416 149.405838,211.480896 
	C149.023758,213.363968 149.028702,215.171021 149.027374,217.000015 
	C148.992844,264.833344 149.000000,312.666656 149.000000,360.500000 
"/>
<path fill="none" opacity="1.000000" stroke="#000000" stroke-linecap="round" stroke-linejoin="round" stroke-width="6.000000"
	d="
M315.000000,360.500000 
	C315.000000,311.833344 315.000885,263.166656 314.999176,214.500000 
	C314.998871,206.036896 309.765564,200.423096 301.999969,200.495087 
	C294.748596,200.562302 289.336273,208.095352 289.367981,214.500656 
	C289.609161,263.166107 289.500000,311.833344 289.500000,360.500000 
"/>
<path fill="none" opacity="1.000000" stroke="#000000" stroke-linecap="round" stroke-linejoin="round" stroke-width="6.000000"
	d="
M362.000000,360.500000 
	C362.000000,312.000000 362.005798,263.500000 361.995239,215.000000 
	C361.993011,204.857758 354.952271,198.721497 346.000000,201.000015 
	C339.958557,202.537643 336.501648,207.438889 336.501282,214.500000 
	C336.498840,262.333344 336.500000,310.166656 336.500000,358.000000 
	C336.500000,358.833344 336.500000,359.666656 336.500000,360.500000 
"/>
<path fill="none" opacity="1.000000" stroke="#000000" stroke-linecap="round" stroke-linejoin="round" stroke-width="6.000000"
	d="
M221.500000,360.500000 
	C221.500000,311.833344 221.501022,263.166656 221.498810,214.500000 
	C221.498505,207.889771 218.143661,202.770264 213.000000,201.500015 
	C205.642212,199.682983 200.363495,201.862427 196.979858,207.988876 
	C195.825043,210.079788 196.004044,212.286667 196.003815,214.500000 
	C195.998810,263.166656 196.000000,311.833344 196.000000,360.500000 
"/>
<path fill="none" opacity="1.000000" stroke="#000000" stroke-linecap="round" stroke-linejoin="round" stroke-width="6.000000"
	d="
M425.500000,50.500000 
	C420.833344,52.536423 416.167999,50.632236 411.499817,50.624920 
	C307.500061,50.461845 203.499985,50.511505 99.500046,50.438503 
	C96.691437,50.436531 94.397926,51.450562 92.000000,52.500000 
"/>
<path fill="none" opacity="1.000000" stroke="#000000" stroke-linecap="round" stroke-linejoin="round" stroke-width="6.000000"
	d="
M435.000000,134.000000 
	C429.758240,135.535522 425.314728,132.473816 420.488495,131.560806 
	C403.866516,128.416367 385.652771,139.399719 380.600555,157.028824 
	C376.262482,172.166031 382.857056,191.601608 399.010437,200.481033 
	C415.639862,209.622208 431.950256,208.448059 447.455444,197.934296 
	C458.436401,190.488312 463.753937,179.447891 465.508423,166.501144 
	C468.775421,142.392776 459.168182,124.246033 439.460632,111.058823 
	C428.920380,104.005844 416.844299,102.663826 404.502563,103.536385 
	C391.915649,104.426285 379.478333,106.202988 367.469177,110.412079 
	C365.119965,111.235458 363.090607,111.821594 362.500000,114.500000 
"/>
<path fill="none" opacity="1.000000" stroke="#000000" stroke-linecap="round" stroke-linejoin="round" stroke-width="6.000000"
	d="
M148.500000,114.500000 
	C147.122009,109.667931 142.391083,109.476158 138.957031,108.686958 
	C126.004265,105.710243 112.952141,103.487213 99.501312,103.360779 
	C76.771828,103.147118 54.468792,118.519691 47.676044,141.053070 
	C42.109241,159.519669 44.019814,177.306351 57.501659,192.498520 
	C64.300064,200.159363 72.860512,204.008865 82.980499,205.622314 
	C99.858711,208.313232 113.620857,203.023911 123.858299,189.889557 
	C132.105927,179.308029 134.275085,166.732513 129.359558,154.054459 
	C124.174606,140.681534 113.537399,133.279373 99.486328,131.087631 
	C94.952744,130.380432 90.324623,131.141205 85.999382,132.998550 
	C82.773651,134.383774 79.470665,135.039993 76.000000,134.000000 
"/>
<path fill="none" opacity="1.000000" stroke="#000000" stroke-linecap="round" stroke-linejoin="round" stroke-width="7.000000"
	d="
M85.500000,50.500000 
	C92.106934,50.599037 94.123009,56.014118 96.360062,60.568733 
	C98.112083,64.135834 100.159233,65.097198 104.000107,65.092819 
	C206.333298,64.976120 308.666656,65.000000 411.000000,65.000000 
"/>
<path fill="none" opacity="1.000000" stroke="#000000" stroke-linecap="round" stroke-linejoin="round" stroke-width="7.000000"
	d="
M411.000000,78.000000 
	C307.333344,78.000000 203.666672,78.000000 100.000000,78.000000 
"/>
<path fill="none" opacity="1.000000" stroke="#000000" stroke-linecap="round" stroke-linejoin="round" stroke-width="6.000000"
	d="
M369.000000,186.500000 
	C370.500000,188.833344 372.342102,191.017715 373.435211,193.528214 
	C376.587799,200.768616 381.684662,207.227142 387.775421,211.062653 
	C394.517639,215.308350 402.517426,218.588974 410.991455,219.573471 
	C417.660278,220.348221 424.221924,221.207047 431.008453,220.593536 
	C442.840454,219.523941 453.473755,215.650894 462.457428,207.950333 
	C473.924072,198.121475 479.952240,185.349625 482.595856,170.517090 
	C487.128174,145.087570 479.926422,123.728203 461.469696,106.031601 
	C452.231689,97.174072 440.764679,92.492516 428.505127,89.479088 
	C423.517426,88.253082 418.296387,86.824280 413.465942,86.484802 
	C408.551147,86.139389 403.162262,86.611626 398.001129,87.014389 
	C390.163483,87.626015 382.332733,88.326424 374.501404,89.015862 
	C373.990692,89.060814 373.232483,89.630493 373.039185,89.456474 
	C368.374237,85.256622 362.703491,87.087646 357.499878,87.078949 
	C287.166718,86.961319 216.833328,87.008995 146.500015,86.965248 
	C143.844940,86.963600 141.171921,86.933136 139.061523,88.578888 
	C137.912048,89.475288 137.152649,89.162056 135.994736,89.059410 
	C124.684105,88.056793 113.378456,86.775749 102.000443,87.020645 
	C83.600800,87.416679 62.209911,93.495735 48.510658,107.010803 
	C32.750763,122.558800 25.525539,141.306915 27.481396,163.501633 
	C28.765648,178.075104 33.312550,191.406158 43.062592,202.444717 
	C53.050632,213.752731 65.852959,219.447647 80.992165,220.602692 
	C94.489243,221.632462 106.838791,218.519409 119.057373,213.130081 
	C127.248482,209.517181 131.608780,202.556000 136.377792,195.912277 
	C138.394608,193.102631 140.089294,189.883057 141.727890,186.852859 
	C143.444901,183.677628 143.550873,179.308914 143.382370,175.505219 
	C143.057465,168.171951 141.902420,160.875641 142.500000,153.500000 
"/>
<path fill="none" opacity="1.000000" stroke="#000000" stroke-linecap="round" stroke-linejoin="round" stroke-width="6.000000"
	d="
M139.000000,91.000000 
	C141.707657,93.900551 145.461365,94.616608 149.002930,95.740761 
	C164.306091,100.598228 179.064209,106.987419 194.472015,111.593613 
	C206.634308,115.229561 218.800232,118.331848 231.484497,119.649300 
	C238.485931,120.376488 245.506226,121.251091 252.502182,121.392014 
	C280.156189,121.949081 306.706696,116.078613 332.486145,106.462891 
	C343.752502,102.260551 354.930786,97.844055 366.478638,94.427803 
	C368.500397,93.829697 370.704620,93.012009 372.000000,91.000000 
"/>
<path fill="none" opacity="1.000000" stroke="#000000" stroke-linecap="round" stroke-linejoin="round" stroke-width="6.000000"
	d="
M268.500000,360.500000 
	C268.500000,313.500000 268.503357,266.500000 268.489319,219.500000 
	C268.488678,217.326950 268.394958,215.177826 268.073273,212.989227 
	C266.885132,204.905548 262.065582,200.148300 255.000000,200.500015 
	C247.897888,200.853561 242.479004,206.697479 242.544357,214.499634 
	C242.661621,228.499664 242.251114,242.496063 242.881622,256.505341 
	C243.285355,265.475769 242.590973,274.529602 242.724243,283.496674 
	C242.910049,295.997772 243.138947,308.509583 242.888000,320.997742 
	C242.623367,334.166870 243.749573,347.347046 242.500000,360.500000 
"/>
<path fill="none" opacity="1.000000" stroke="#000000" stroke-linecap="round" stroke-linejoin="round" stroke-width="6.000000"
	d="
M387.500000,212.000000 
	C386.375702,214.044983 386.491943,216.272919 386.492462,218.500000 
	C386.502594,262.833344 386.509705,307.166656 386.478516,351.500000 
	C386.476410,354.500092 386.166656,357.500000 386.000000,360.500000 
"/>
<path fill="none" opacity="1.000000" stroke="#000000" stroke-linecap="round" stroke-linejoin="round" stroke-width="6.000000"
	d="
M126.500000,215.500000 
	C122.926315,215.379822 124.589668,218.110855 124.574631,219.500809 
	C124.444893,231.499405 124.500000,243.500000 124.500000,255.500000 
	C124.500000,290.500000 124.500000,325.500000 124.500000,360.500000 
"/>
<path fill="none" opacity="1.000000" stroke="#000000" stroke-linecap="round" stroke-linejoin="round" stroke-width="6.000000"
	d="
M301.000000,101.500000 
	C298.284302,99.071960 295.100739,98.435555 291.499786,98.450348 
	C268.000183,98.546913 244.500000,98.507034 221.000000,98.492332 
	C217.521835,98.490158 213.983215,98.575943 211.057846,100.584259 
	C209.562073,101.611137 208.482758,101.282822 206.991074,101.059662 
	C201.012680,100.165291 195.000000,99.500000 189.000000,98.750000 
"/>
<path fill="none" opacity="1.000000" stroke="#000000" stroke-linecap="round" stroke-linejoin="round" stroke-width="6.000000"
	d="
M143.000000,186.500000 
	C146.440063,188.412994 150.246613,188.608490 153.998276,188.457260 
	C169.329727,187.839294 184.659836,188.801300 200.005478,188.124191 
	C213.479248,187.529694 227.000137,187.967834 240.499908,188.022842 
	C243.833862,188.036423 247.169312,188.294067 250.498825,188.517410 
	C252.044647,188.621094 252.731216,188.064545 252.500000,186.500000 
"/>
<path fill="none" opacity="1.000000" stroke="#000000" stroke-linecap="round" stroke-linejoin="round" stroke-width="6.000000"
	d="
M135.500000,122.000000 
	C126.728615,116.731262 117.188309,114.336479 107.000381,114.521095 
	C102.658020,114.599777 98.933479,115.911179 95.364975,118.835213 
	C92.535576,121.153618 88.499886,121.999733 85.000031,123.500061 
	C80.866577,125.272003 78.044533,127.897911 76.323837,132.433167 
	C74.273254,137.837860 69.310661,141.799942 67.510040,147.503174 
	C63.900139,158.936996 64.728302,169.626602 73.003174,178.997192 
	C74.494484,180.685974 76.239983,182.098404 78.504227,182.474579 
	C83.991226,183.386154 89.474937,184.524521 95.006172,184.911865 
	C102.370132,185.427597 110.570518,178.633865 112.419876,170.481827 
	C113.772530,164.519333 109.947701,157.001984 104.012398,153.975677 
	C98.783249,151.309464 91.459656,151.753235 86.543640,156.049927 
	C81.883156,160.123260 80.070145,166.265213 82.281212,172.989731 
	C83.254105,175.948624 84.979820,178.692551 84.500000,182.000000 
"/>
<path fill="none" opacity="1.000000" stroke="#000000" stroke-linecap="round" stroke-linejoin="round" stroke-width="6.000000"
	d="
M322.000000,98.750008 
	C316.833344,99.333336 311.632843,99.717216 306.514343,100.584572 
	C303.973724,101.015091 301.353516,101.316765 299.329315,103.864380 
	C298.084961,105.430527 295.233398,106.017807 292.989410,106.444382 
	C275.302002,109.806801 257.421936,110.477051 239.505539,109.407257 
	C232.138763,108.967377 224.814026,107.618835 217.510895,106.432907 
	C215.087830,106.039429 212.646255,105.133133 211.000000,103.000000 
"/>
<path fill="none" opacity="1.000000" stroke="#000000" stroke-linecap="round" stroke-linejoin="round" stroke-width="7.000000"
	d="
M253.000000,188.250000 
	C262.340149,188.928452 271.709717,187.507919 280.986359,188.186447 
	C288.357880,188.725632 295.645599,187.187225 303.020691,188.371017 
	C307.407684,189.075180 312.000366,188.537003 316.499939,188.493256 
	C331.833435,188.344177 347.177612,188.451462 362.494659,187.861694 
	C368.735748,187.621384 369.327026,187.233124 368.564636,180.992096 
	C368.202118,178.024414 366.643372,176.871658 364.000488,176.496597 
	C357.018921,175.505814 349.975189,175.792114 343.010162,176.181519 
	C339.618134,176.371170 336.220917,176.533661 333.032684,175.848007 
	C330.046631,175.205826 327.379791,175.591141 324.488007,175.879623 
	C321.038940,176.223694 317.475494,175.869354 314.006073,175.449829 
	C309.447205,174.898514 305.115692,176.768387 300.482819,176.123520 
	C295.391602,175.414841 290.146423,175.310532 285.005829,175.602707 
	C280.113617,175.880783 275.344055,176.166397 270.478271,175.099030 
	C267.891449,174.531586 265.329376,176.323212 262.493286,176.077728 
	C256.184937,175.531693 249.827179,176.482788 243.494751,175.535034 
	C237.201569,174.593170 230.944672,176.529785 224.435379,175.359375 
	C220.524414,174.656174 215.951492,176.288635 211.497345,176.239059 
	C207.552353,176.195145 203.829956,175.853729 199.978882,175.109268 
	C196.023682,174.344696 192.274475,177.082489 187.974991,176.110626 
	C180.230148,174.359955 172.345688,176.454620 164.496216,176.079132 
	C157.834457,175.760437 151.112167,175.576553 144.500000,177.000000 
"/>
<path fill="none" opacity="1.000000" stroke="#000000" stroke-linecap="round" stroke-linejoin="round" stroke-width="6.000000"
	d="
M375.500000,122.000000 
	C380.111786,118.540573 385.623840,117.118973 391.028046,115.871460 
	C397.061920,114.478607 403.230530,113.582985 409.534058,115.380615 
	C412.221100,116.146889 414.658600,116.879013 416.490112,119.008492 
	C417.563599,120.256584 419.060059,120.479668 420.463287,121.085075 
	C426.310211,123.607712 433.122528,124.973442 434.644745,132.972458 
	C434.997437,134.825745 437.245270,136.276947 438.487427,138.009033 
	C447.498993,150.574631 447.858582,166.588120 439.569183,177.054794 
	C436.347412,181.122787 432.584656,183.374649 427.509949,182.894730 
	C425.988220,182.750839 424.638611,183.122406 423.536865,183.587372 
	C412.082733,188.421494 399.227081,179.971558 398.672150,168.491684 
	C398.227875,159.302032 404.052338,152.961563 413.507080,152.075424 
	C421.758820,151.302048 429.332581,158.508286 429.540833,166.498932 
	C429.628967,169.882385 429.401978,173.166229 427.449066,175.964447 
	C426.076447,177.931259 426.712128,179.979797 426.500000,182.000000 
"/>
<path fill="none" opacity="1.000000" stroke="#000000" stroke-linecap="round" stroke-linejoin="round" stroke-width="6.000000"
	d="
M144.500000,119.500000 
	C148.513596,113.692497 148.648834,113.943863 155.021820,115.404816 
	C161.151077,116.809875 166.601074,119.492294 172.011032,122.480026 
	C177.383850,125.447243 179.528488,130.082428 179.506027,136.000015 
	C179.480087,142.833252 179.581070,149.667923 179.475861,156.499634 
	C179.381927,162.598694 179.334244,168.666565 181.500000,174.500000 
"/>
<path fill="none" opacity="1.000000" stroke="#000000" stroke-linecap="round" stroke-linejoin="round" stroke-width="7.000000"
	d="
M177.500000,125.500000 
	C185.662140,124.097504 189.872925,125.615791 201.000000,130.768463 
	C201.000000,141.327988 200.906662,151.665253 201.044464,161.999405 
	C201.102188,166.328308 200.420853,170.454010 199.000000,174.500000 
"/>
<path fill="none" opacity="1.000000" stroke="#000000" stroke-linecap="round" stroke-linejoin="round" stroke-width="6.000000"
	d="
M334.000000,125.500000 
	C324.714142,122.347824 317.505524,128.448792 309.212158,130.496964 
	C310.348022,134.130814 309.934143,137.328751 309.995880,140.500076 
	C310.174194,149.666519 310.247192,158.836304 310.562988,167.997833 
	C310.638184,170.179138 311.500000,172.333328 312.000000,174.500000 
"/>
<path fill="none" opacity="1.000000" stroke="#000000" stroke-linecap="round" stroke-linejoin="round" stroke-width="6.000000"
	d="
M416.500000,120.500000 
	C414.580048,121.406822 412.848175,122.557961 410.499939,122.555031 
	C400.183594,122.542183 391.892273,127.169540 383.271698,132.640228 
	C375.473419,137.589066 373.673340,145.612350 369.305511,152.202484 
	C367.335907,155.174210 368.596771,160.332031 368.519531,164.500366 
	C368.441223,168.726608 368.539734,172.958099 367.000000,177.000000 
"/>
<path fill="none" opacity="1.000000" stroke="#000000" stroke-linecap="round" stroke-linejoin="round" stroke-width="6.000000"
	d="
M288.500000,136.500000 
	C289.774963,137.978348 289.495178,139.770752 289.497223,141.500000 
	C289.504425,147.666672 289.337372,153.838959 289.550690,159.998245 
	C289.725861,165.056946 289.076294,169.880966 287.000000,174.500000 
"/>
<path fill="none" opacity="1.000000" stroke="#000000" stroke-linecap="round" stroke-linejoin="round" stroke-width="6.000000"
	d="
M95.500000,120.000000 
	C98.992371,124.290245 104.223579,122.136040 108.557396,123.283150 
	C113.677917,124.638496 118.506462,126.450218 122.936356,129.106155 
	C126.005791,130.946426 128.383911,133.869690 131.972687,135.080948 
	C132.823669,135.368164 133.575562,136.568924 133.958115,137.516907 
	C135.625305,141.648315 138.276978,145.210892 140.367111,149.071945 
	C142.903702,153.757751 147.290161,154.520218 151.353500,156.369644 
	C154.348221,153.221130 153.027634,149.191620 154.500000,146.000000 
"/>
<path fill="none" opacity="1.000000" stroke="#000000" stroke-linecap="round" stroke-linejoin="round" stroke-width="7.000000"
	d="
M243.000000,138.500000 
	C242.714828,148.498032 243.638885,158.520798 242.462280,168.495544 
	C242.222748,170.526276 241.500000,172.500000 241.000000,174.500000 
"/>
<path fill="none" opacity="1.000000" stroke="#000000" stroke-linecap="round" stroke-linejoin="round" stroke-width="7.000000"
	d="
M268.000000,138.500000 
	C268.518860,140.649918 268.375122,142.799332 268.320740,145.001740 
	C268.077087,154.870468 267.066650,164.806076 270.000000,174.500000 
"/>
<path fill="none" opacity="1.000000" stroke="#000000" stroke-linecap="round" stroke-linejoin="round" stroke-width="6.000000"
	d="
M221.750000,144.000000 
	C221.886368,154.211929 219.736649,164.592514 224.000000,174.500000 
"/>
<path fill="none" opacity="1.000000" stroke="#000000" stroke-linecap="round" stroke-linejoin="round" stroke-width="6.000000"
	d="
M212.000000,134.500000 
	C210.904968,144.150665 211.783630,153.835342 211.500000,163.500000 
"/>
<path fill="none" opacity="1.000000" stroke="#000000" stroke-linecap="round" stroke-linejoin="round" stroke-width="7.000000"
	d="
M299.500000,134.500000 
	C300.352356,144.166672 300.282928,153.833328 299.500000,163.500000 
"/>
<path fill="none" opacity="1.000000" stroke="#000000" stroke-linecap="round" stroke-linejoin="round" stroke-width="8.000000"
	d="
M367.000000,119.500000 
	C364.018402,114.100967 360.009338,114.091713 354.437134,115.794235 
	C347.281952,117.980415 340.851410,121.299438 334.500000,125.000000 
"/>
<path fill="none" opacity="1.000000" stroke="#000000" stroke-linecap="round" stroke-linejoin="round" stroke-width="6.000000"
	d="
M255.500000,139.500000 
	C255.500000,147.500000 255.500000,155.500000 255.500000,163.500000 
"/>
<path fill="none" opacity="1.000000" stroke="#000000" stroke-linecap="round" stroke-linejoin="round" stroke-width="6.000000"
	d="
M377.500000,135.000000 
	C374.279907,132.567429 375.449677,129.120560 375.547699,126.001495 
	C375.628052,123.443840 375.464905,121.228226 372.497070,120.512169 
	C370.129913,119.941032 368.069489,118.652283 365.404480,120.886024 
	C360.848816,124.704475 355.039764,126.816444 350.925812,131.433899 
	C348.814880,133.803177 340.600006,131.462387 337.507477,127.993340 
	C336.954926,127.373520 336.500000,126.666672 336.000000,126.000000 
"/>
<path fill="none" opacity="1.000000" stroke="#000000" stroke-linecap="round" stroke-linejoin="round" stroke-width="6.000000"
	d="
M309.000000,131.500000 
	C308.333344,131.333328 307.606476,130.904083 307.009369,131.040909 
	C301.493469,132.304886 296.029358,133.808029 290.491241,134.957764 
	C285.565125,135.980423 280.430725,135.231293 275.496887,136.487793 
	C269.103119,138.116074 262.332947,135.743958 255.947968,138.373688 
	C254.640396,138.912231 252.659119,137.513687 251.001251,137.552872 
	C241.594040,137.775223 232.254593,136.333939 223.059341,135.068726 
	C218.548294,134.448059 213.252136,135.065155 208.885666,131.908127 
	C207.263397,130.735214 204.378601,130.315994 202.000000,131.500000 
"/>
<path fill="none" opacity="1.000000" stroke="#000000" stroke-linecap="round" stroke-linejoin="round" stroke-width="6.000000"
	d="
M144.500000,120.000000 
	C149.235901,124.026802 154.924133,126.623482 159.664963,130.813354 
	C164.092453,134.726303 164.417786,139.718597 166.582672,144.406937 
	C162.295761,147.635834 157.868820,145.769104 154.612076,144.668396 
	C150.439346,143.258102 146.581131,140.046097 143.552963,136.455338 
	C142.461807,135.161453 141.626251,133.608261 139.989761,133.028915 
	C135.223572,131.341614 134.665268,127.342461 135.663574,123.542976 
	C136.670303,119.711311 140.544098,119.510376 144.000000,119.500000 
"/>
<path fill="none" opacity="1.000000" stroke="#000000" stroke-linecap="round" stroke-linejoin="round" stroke-width="5.000000"
	d="
M374.500000,131.000000 
	C367.844421,135.019516 362.782410,141.017227 356.500000,145.500000 
"/>
<path fill="none" opacity="1.000000" stroke="#000000" stroke-linecap="round" stroke-linejoin="round" stroke-width="6.000000"
	d="
M419.000000,52.999992 
	C418.333313,54.166660 417.801361,55.440056 416.976410,56.481312 
	C413.589630,60.756268 411.778198,65.325401 412.388092,71.012001 
	C412.900970,75.793808 411.471130,80.713638 413.000000,85.500000 
"/>
<path fill="none" opacity="1.000000" stroke="#000000" stroke-linecap="round" stroke-linejoin="round" stroke-width="6.000000"
	d="
M99.500000,65.500000 
	C97.648804,68.331352 98.130241,71.635872 98.672211,74.467033 
	C99.413277,78.338287 98.388718,81.843430 98.000000,85.500000 
"/>
<path fill="none" opacity="1.000000" stroke="#000000" stroke-linecap="round" stroke-linejoin="round" stroke-width="6.000000"
	d="
M347.500000,133.500000 
	C346.935944,137.835403 345.714996,141.986862 344.000000,146.000000 
"/>
<path fill="none" opacity="1.000000" stroke="#000000" stroke-linecap="round" stroke-linejoin="round" stroke-width="6.000000"
	d="
M346.000000,145.500000 
	C348.376801,146.633835 350.707062,145.525223 352.986816,145.166245 
	C354.950836,144.856995 356.767700,145.232056 356.880188,147.007599 
	C357.147339,151.223282 359.534607,155.149185 358.500000,159.500000 
"/>
</svg>